<svg width="498" height="403" viewBox="0 0 498 403" fill="none" xmlns="http://www.w3.org/2000/svg">
<g clip-path="url(#clip0_5_973)">
<path d="M331.62 403L331.514 402.99L166.381 387.623L16.2197 401.597C12.2991 401.962 8.39437 400.751 5.36454 398.232C2.3347 395.713 0.427954 392.091 0.0637611 388.164C0.0213721 387.707 0.000160701 387.248 0.000123869 386.789V29.0377C-0.0150326 25.3271 1.3612 21.7462 3.85636 19.0037C6.35151 16.2613 9.78366 14.5574 13.4733 14.2293L166.381 0L166.487 0.0100494L331.62 15.3767L481.78 1.40321C485.701 1.03836 489.606 2.24864 492.635 4.7678C495.665 7.28696 497.572 10.9086 497.936 14.8361C497.979 15.2934 498 15.7518 498 16.2116V373.962C498.015 377.673 496.639 381.254 494.144 383.996C491.649 386.739 488.216 388.443 484.527 388.771L331.62 403Z" fill="#3F3D56"/>
<path d="M230.191 132.35C198.226 109.029 164.593 86.9152 130.235 66.6259L128.51 65.6078V134.421H233.029L230.191 132.35ZM130.794 132.133V69.6176C163.479 88.9859 195.485 110.002 226.006 132.133L130.794 132.133ZM391.965 273.768C378.141 259.371 363.959 245.301 349.419 231.56C345.411 227.767 341.377 224.005 337.319 220.274C312.554 197.485 286.975 175.811 260.581 155.253L260.272 155.013H128.51V275.708H393.827L391.965 273.768ZM130.794 273.42V157.301H259.49C284.94 177.133 309.701 198.074 333.773 220.125C337.953 223.952 342.104 227.809 346.227 231.697C360.64 245.265 374.715 259.173 388.454 273.42H130.794ZM391.965 273.768C378.141 259.371 363.959 245.301 349.419 231.56C345.411 227.767 341.377 224.005 337.319 220.274C312.554 197.485 286.975 175.811 260.581 155.253L260.272 155.013H128.51V275.708H393.827L391.965 273.768ZM130.794 273.42V157.301H259.49C284.94 177.133 309.701 198.074 333.773 220.125C337.953 223.952 342.104 227.809 346.227 231.697C360.64 245.265 374.715 259.173 388.454 273.42H130.794ZM230.191 132.35C198.226 109.029 164.593 86.9152 130.235 66.6259L128.51 65.6078V134.421H233.029L230.191 132.35ZM130.794 132.133V69.6176C163.479 88.9859 195.485 110.002 226.006 132.133L130.794 132.133ZM230.191 132.35C198.226 109.029 164.593 86.9152 130.235 66.6259L128.51 65.6078V134.421H233.029L230.191 132.35ZM130.794 132.133V69.6176C163.479 88.9859 195.485 110.002 226.006 132.133L130.794 132.133ZM391.965 273.768C378.141 259.371 363.959 245.301 349.419 231.56C345.411 227.767 341.377 224.005 337.319 220.274C312.554 197.485 286.975 175.811 260.581 155.253L260.272 155.013H128.51V275.708H393.827L391.965 273.768ZM130.794 273.42V157.301H259.49C284.94 177.133 309.701 198.074 333.773 220.125C337.953 223.952 342.104 227.809 346.227 231.697C360.64 245.265 374.715 259.173 388.454 273.42H130.794ZM15.4607 296.3V298.588H105.67V331.765H15.4607V334.053H107.954V296.3H15.4607ZM128.51 354.645V377.829L130.794 377.617V356.933H482.54V354.645L128.51 354.645ZM482.54 298.588V296.3H128.51V334.053H482.54V331.765H130.794V298.588L482.54 298.588ZM269.237 132.133C225.418 98.2721 179.143 67.728 130.794 40.7539V17.5874L128.51 17.7991V41.1448L130.269 43.082C178.421 69.9827 224.509 100.433 268.152 134.181L268.46 134.421H482.54V132.133L269.237 132.133ZM105.67 132.133H15.4607V134.421H107.954V19.7096L105.67 19.9212L105.67 132.133ZM482.54 155.013H294.339L296.8 157.038C319.972 176.138 342.723 196.394 365.053 217.809C368.228 220.852 371.392 223.92 374.544 227.012C390.235 242.371 405.62 258.231 420.699 274.592L422.582 275.708H482.54V273.42H422.726C407.811 257.22 392.573 241.49 377.011 226.229C373.899 223.174 370.775 220.141 367.64 217.128C345.793 196.129 323.48 176.187 300.7 157.301H482.54V155.013ZM15.4607 354.645V356.933H105.67V379.951L107.954 379.739V354.645H15.4607ZM15.4607 155.013V157.301H105.67V273.42H15.4607V275.708H107.954V155.013H15.4607ZM230.191 132.35C198.226 109.029 164.593 86.9152 130.235 66.6259L128.51 65.6078V134.421H233.029L230.191 132.35ZM130.794 132.133V69.6176C163.479 88.9859 195.485 110.002 226.006 132.133L130.794 132.133ZM391.965 273.768C378.141 259.371 363.959 245.301 349.419 231.56C345.411 227.767 341.377 224.005 337.319 220.274C312.554 197.485 286.975 175.811 260.581 155.253L260.272 155.013H128.51V275.708H393.827L391.965 273.768ZM130.794 273.42V157.301H259.49C284.94 177.133 309.701 198.074 333.773 220.125C337.953 223.952 342.104 227.809 346.227 231.697C360.64 245.265 374.715 259.173 388.454 273.42H130.794ZM230.191 132.35C198.226 109.029 164.593 86.9152 130.235 66.6259L128.51 65.6078V134.421H233.029L230.191 132.35ZM130.794 132.133V69.6176C163.479 88.9859 195.485 110.002 226.006 132.133L130.794 132.133ZM391.965 273.768C378.141 259.371 363.959 245.301 349.419 231.56C345.411 227.767 341.377 224.005 337.319 220.274C312.554 197.485 286.975 175.811 260.581 155.253L260.272 155.013H128.51V275.708H393.827L391.965 273.768ZM130.794 273.42V157.301H259.49C284.94 177.133 309.701 198.074 333.773 220.125C337.953 223.952 342.104 227.809 346.227 231.697C360.64 245.265 374.715 259.173 388.454 273.42H130.794Z" fill="white"/>
<path d="M255.063 150.568C255.063 179.541 202.693 244.086 202.693 244.086C202.693 244.086 150.323 179.541 150.323 150.568C150.323 136.654 155.841 123.31 165.662 113.472C175.483 103.634 188.804 98.1064 202.693 98.1064C216.583 98.1064 229.903 103.634 239.724 113.472C249.546 123.31 255.063 136.654 255.063 150.568Z" fill="#ff6d1c"/>
<path d="M226.634 148.287C226.634 153.03 225.23 157.667 222.6 161.611C219.969 165.555 216.23 168.629 211.855 170.444C207.481 172.259 202.667 172.734 198.023 171.808C193.379 170.883 189.113 168.599 185.765 165.245C182.417 161.891 180.137 157.618 179.213 152.966C178.289 148.313 178.764 143.491 180.576 139.109C182.388 134.727 185.456 130.982 189.393 128.346C193.33 125.711 197.959 124.305 202.694 124.305C205.838 124.303 208.952 124.922 211.857 126.127C214.762 127.332 217.402 129.098 219.626 131.326C221.849 133.553 223.612 136.197 224.815 139.108C226.018 142.018 226.636 145.137 226.634 148.287Z" fill="white"/>
<path d="M202.693 281.949C210.49 281.949 216.81 275.618 216.81 267.808C216.81 259.997 210.49 253.666 202.693 253.666C194.896 253.666 188.576 259.997 188.576 267.808C188.576 275.618 194.896 281.949 202.693 281.949Z" fill="#ff6d1c"/>
<path d="M337.955 90.2773C349.482 90.2773 358.827 80.9162 358.827 69.3687C358.827 57.8212 349.482 48.4601 337.955 48.4601C326.427 48.4601 317.082 57.8212 317.082 69.3687C317.082 80.9162 326.427 90.2773 337.955 90.2773Z" fill="#FF6584"/>
<path d="M403.407 133.801H301.015C300.887 133.803 300.759 133.793 300.632 133.771L349.059 49.7421C349.355 49.2187 349.784 48.7834 350.302 48.4805C350.821 48.1776 351.41 48.018 352.01 48.018C352.611 48.018 353.2 48.1776 353.719 48.4805C354.237 48.7834 354.666 49.2187 354.961 49.7421L387.462 106.132L389.019 108.83L403.407 133.801Z" fill="white"/>
<path opacity="0.2" d="M403.408 133.801H368.448L385.609 108.83L386.844 107.031L387.462 106.132L389.019 108.83L403.408 133.801Z" fill="black"/>
<path d="M460.419 133.801H371.858L389.019 108.83L390.254 107.031L412.617 74.4892C414.083 72.3564 417.61 72.2236 419.334 74.0869C419.45 74.214 419.557 74.3484 419.656 74.4892L460.419 133.801Z" fill="white"/>
<path d="M466.99 252.254C472.825 252.254 477.554 247.516 477.554 241.671C477.554 235.827 472.825 231.089 466.99 231.089C461.156 231.089 456.427 235.827 456.427 241.671C456.427 247.516 461.156 252.254 466.99 252.254Z" fill="white"/>
<path d="M468.009 273.546H465.845L466.832 240.078L468.009 273.546Z" fill="#CBCBCB"/>
<path d="M467.022 246.421L469.345 243.201L466.99 247.218L466.736 246.771L467.022 246.421Z" fill="#CBCBCB"/>
<path d="M466.768 249.671L464.445 246.453L466.8 250.468L467.054 250.022L466.768 249.671Z" fill="#CBCBCB"/>
<path d="M436.953 242.099C445.57 242.099 452.555 235.102 452.555 226.47C452.555 217.838 445.57 210.841 436.953 210.841C428.337 210.841 421.351 217.838 421.351 226.47C421.351 235.102 428.337 242.099 436.953 242.099Z" fill="white"/>
<path d="M438.457 273.546H435.261L436.719 224.116L438.457 273.546Z" fill="#CBCBCB"/>
<path d="M437 233.484L440.431 228.73L436.954 234.661L436.578 234.002L437 233.484Z" fill="#CBCBCB"/>
<path d="M436.625 238.286L433.194 233.532L436.672 239.463L437.047 238.804L436.625 238.286Z" fill="#CBCBCB"/>
<path d="M74.7297 252.254C80.5639 252.254 85.2935 247.516 85.2935 241.671C85.2935 235.827 80.5639 231.089 74.7297 231.089C68.8955 231.089 64.166 235.827 64.166 241.671C64.166 247.516 68.8955 252.254 74.7297 252.254Z" fill="white"/>
<path d="M75.7484 273.546H73.5848L74.571 240.078L75.7484 273.546Z" fill="#CBCBCB"/>
<path d="M74.7616 246.421L77.0847 243.201L74.7298 247.218L74.4756 246.771L74.7616 246.421Z" fill="#CBCBCB"/>
<path d="M74.5074 249.671L72.1842 246.453L74.5392 250.468L74.7933 250.022L74.5074 249.671Z" fill="#CBCBCB"/>
<path d="M44.6925 242.099C53.3092 242.099 60.2943 235.102 60.2943 226.47C60.2943 217.838 53.3092 210.841 44.6925 210.841C36.0759 210.841 29.0908 217.838 29.0908 226.47C29.0908 235.102 36.0759 242.099 44.6925 242.099Z" fill="white"/>
<path d="M46.1963 273.546H43.0009L44.4581 224.116L46.1963 273.546Z" fill="#CBCBCB"/>
<path d="M44.7398 233.484L48.17 228.73L44.6929 234.661L44.3172 234.002L44.7398 233.484Z" fill="#CBCBCB"/>
<path d="M44.3641 238.286L40.9332 233.532L44.4111 239.463L44.7868 238.804L44.3641 238.286Z" fill="#CBCBCB"/>
</g>
<defs>
<clipPath id="clip0_5_973">
<rect width="498" height="403" fill="white"/>
</clipPath>
</defs>
</svg>
